<?xml version="1.0" encoding="ISO-8859-1" standalone="yes"?>
<svg width="293.982" height="293.985">
  <defs> 
	<marker id="ArrowEnd" viewBox="0 0 10 10" refX="0" refY="5" 
		markerUnits="strokeWidth" 
		markerWidth="4" 
		markerHeight="3" 
		orient="auto"> 
		<path d="M 0 0 L 10 5 L 0 10 z" /> 
	</marker>
	<marker id="ArrowStart" viewBox="0 0 10 10" refX="10" refY="5" 
		markerUnits="strokeWidth" 
		markerWidth="4" 
		markerHeight="3" 
		orient="auto"> 
		<path d="M 10 0 L 0 5 L 10 10 z" /> 
	</marker> </defs>
<g>
<g>
<g>
<path style="stroke:#ffffff; stroke-width:1.000188; fill:#d9d9d9" d="M 146.99 5.24182C 68.8306 5.24182 5.24182 68.8309 5.24182 146.993C 5.24182 225.154 68.8306 288.744 146.99 288.744C 225.152 288.744 288.74 225.154 288.74 146.993C 288.74 68.8309 225.152 5.24182 146.99 5.24182zM 285.275 146.993C 285.275 223.243 223.242 285.278 146.99 285.278C 70.74 285.278 8.70506 223.243 8.70506 146.993C 8.70506 70.7411 70.74 8.70648 146.99 8.70648C 223.242 8.70648 285.275 70.7411 285.275 146.993z"/>
<path style="stroke:#ffffff; stroke-width:1.000188; fill:#d9d9d9" d="M 146.99 10.5285C 71.7441 10.5285 10.5243 71.7464 10.5243 146.994C 10.5243 222.24 71.7441 283.459 146.99 283.459C 222.238 283.459 283.457 222.24 283.457 146.994C 283.457 71.7464 222.238 10.5285 146.99 10.5285zM 282.157 146.994C 282.157 221.524 221.522 282.161 146.99 282.161C 72.4591 282.161 11.8255 221.524 11.8255 146.994C 11.8255 72.4614 72.4591 11.8278 146.99 11.8278C 221.522 11.8278 282.157 72.4614 282.157 146.994z"/>
<path style="stroke:#ffffff; stroke-width:1.000188; fill:#d9d9d9" d="M 103.898 25.1483C 103.706 30.2451 108.435 27.5689 111.446 27.3367C 112.502 27.2567 122.02 23.5412 120.685 27.4526C 119.857 29.8831 116.736 29.0811 114.804 29.3019C 112.496 29.569 109.892 30.405 107.78 31.3743C 105.713 32.3195 107.253 33.6494 108.905 33.2355C 110.422 32.8505 111.859 32.7104 113.429 32.8003C 117.18 33.0203 121.134 34.1075 124.223 36.2967C 125.795 37.4128 130.282 41.8544 127.454 43.1988C 125.745 44.0099 123.394 41.6296 122.173 40.5645C 120.206 38.8491 118.901 37.3301 116.313 36.515C 111.646 35.0448 106.885 35.9568 103.182 39.1603C 99.8135 42.0807 97.3343 45.401 96.5473 49.8126C 96.2221 51.6358 95.4331 58.1835 92.4266 56.0124C 89.1071 53.6149 93.8398 45.8251 94.7119 44.44C 95.1459 43.7488 95.974 42.8297 96.8622 41.8646C 97.4372 41.2395 98.7353 39.7171 99.7225 38.5882C 100.259 37.9722 102.022 36.299 102.725 35.7427C 103.766 34.9217 104.2 33.4555 102.264 33.5436C 100.434 33.6225 99.6255 34.7105 97.3943 35.6497C 95.166 36.591 89.4393 41.8635 88.351 38.7402C 87.0069 34.8735 95.5661 33.3174 97.8854 32.3963C 98.4223 32.1823 99.1515 31.9302 99.7205 31.7162C 100.175 31.5453 100.776 31.1432 100.854 31.0392C 101.328 30.4113 101.673 29.495 101.486 29.038C 101.014 27.8929 100.167 26.4737 100.165 25.2773C 101.103 24.4243 102.901 24.3614 103.898 25.1483z"/>
<path style="stroke:#ffffff; stroke-width:1.000188; fill:#d9d9d9" d="M 96.3392 181.636L 86.3208 176.275L 82.9954 182.075C 85.3946 183.713 86.555 186.194 86.8791 189.059L 104.746 198.622L 110.217 189.064L 101.27 184.278L 128.931 132.777C 129.057 132.57 129.005 132.354 128.747 132.208L 124.517 129.95C 124.224 129.813 124.037 129.887 123.917 130.105L 96.3392 181.638L 96.3392 181.636z"/>
<path style="stroke:#ffffff; stroke-width:1.000188; fill:#d9d9d9" d="M 112.866 185.652L 185.532 185.652C 187.01 185.652 188.218 186.869 188.218 188.354L 188.218 205.061C 188.218 206.55 187.01 207.766 185.532 207.766L 112.866 207.766C 111.386 207.766 110.175 206.55 110.175 205.061L 110.175 188.354C 110.175 186.864 111.386 185.652 112.866 185.652M 113.759 188.004L 184.391 188.004C 185.196 188.004 185.854 188.663 185.854 189.475L 185.854 203.941C 185.854 204.749 185.196 205.414 184.391 205.414L 114.106 205.414C 113.299 205.414 112.638 204.749 112.638 203.941L 112.638 189.12C 112.638 188.508 113.143 188.005 113.753 188.005L 113.759 188.004z"/>
<path style="stroke:#ffffff; stroke-width:1.000188; fill:#d9d9d9" d="M 107.997 108.32L 132.68 108.32L 132.68 102.93L 107.997 102.93L 107.997 108.32z"/>
<path style="stroke:#ffffff; stroke-width:1.000188; fill:#d9d9d9" d="M 107.997 116.52L 132.68 116.52L 132.68 111.129L 107.997 111.129L 107.997 116.52z"/>
<path style="stroke:#ffffff; stroke-width:1.000188; fill:#d9d9d9" d="M 107.997 124.722L 132.68 124.722L 132.68 119.331L 107.997 119.331L 107.997 124.722z"/>
<path style="stroke:#ffffff; stroke-width:1.000188; fill:#d9d9d9" d="M 202.877 155.304L 204.415 155.304C 204.845 155.304 205.191 155.591 205.191 155.922L 205.191 157.698C 205.974 157.26 206.507 156.43 206.507 155.476L 206.507 148.11C 206.507 147.157 205.974 146.319 205.191 145.884L 205.191 147.333C 205.191 147.668 204.841 147.955 204.415 147.955L 202.877 147.955C 202.452 147.955 202.1 147.673 202.1 147.333L 202.1 145.884C 201.317 146.319 200.788 147.154 200.788 148.11L 200.788 155.476C 200.788 156.43 201.319 157.26 202.1 157.698L 202.1 155.922C 202.1 155.585 202.446 155.304 202.877 155.304zM 102.871 134.072C 102.001 134.06 101.179 134.125 100.733 134.826C 99.3964 136.939 99.6967 142.758 99.6967 145.081L 93.3497 145.081L 91.7674 143.53L 91.7674 132.937C 93.3029 130.458 97.1673 128.612 104.296 128.62L 119.72 128.636C 120.204 128.636 120.386 129.049 120.244 129.311L 111.784 145.063L 102.871 145.081L 102.871 134.067L 102.871 134.072zM 124.88 147.906L 147.396 147.906C 148.16 147.906 148.78 148.532 148.78 149.286L 148.78 150.693C 148.78 151.447 148.152 152.075 147.396 152.075L 123.183 152.075C 124.46 153.104 125.807 155.21 126.47 156.503L 128.327 156.503C 128.327 156.503 131.836 158.576 131.427 161.281C 131.013 163.976 130.183 164.594 127.708 166.669C 125.233 168.748 120.685 173.314 118.83 175.806C 116.971 178.296 116.971 182.03 119.035 182.03L 148.768 182.03L 148.768 182.035L 178.706 182.035C 179 182.035 179.246 181.962 179.457 181.824C 180.739 181.006 180.514 177.945 178.915 175.806C 177.054 173.317 172.515 168.748 170.039 166.669C 167.56 164.594 166.735 163.973 166.319 161.281C 166.155 160.186 166.629 159.2 167.256 158.405C 167.268 158.386 167.285 158.364 167.297 158.35L 167.307 158.343C 167.319 158.322 167.332 158.313 167.342 158.296C 167.344 158.296 167.348 158.288 167.348 158.283C 167.362 158.266 167.379 158.248 167.389 158.24C 167.389 158.233 167.389 158.228 167.394 158.228C 167.409 158.212 167.426 158.196 167.44 158.179C 167.442 158.179 167.442 158.172 167.442 158.172C 167.461 158.157 167.473 158.14 167.487 158.119L 167.492 158.119C 167.51 158.102 167.526 158.079 167.545 158.063L 167.545 158.058C 167.565 158.039 167.578 158.015 167.6 157.998L 167.666 157.935C 167.674 157.922 167.69 157.907 167.7 157.889C 168.532 157.032 169.414 156.508 169.424 156.503L 171.282 156.503C 172.292 154.141 173.976 152.222 175.626 150.776C 178.038 148.667 180.366 147.569 180.366 147.569L 185.737 147.569C 190.214 142.431 196.053 140.653 202.106 139.628L 202.106 142.781C 200 142.976 198.332 144.762 198.332 146.913L 198.332 156.748C 198.332 158.907 200 160.69 202.106 160.883L 202.106 166.37C 200 166.557 198.332 168.349 198.332 170.502L 198.332 180.134C 198.332 182.421 200.194 184.282 202.479 184.282L 204.828 184.282C 207.107 184.282 208.976 182.421 208.976 180.134L 208.976 170.502C 208.976 168.349 207.306 166.557 205.203 166.37L 205.203 160.883C 207.308 160.69 208.976 158.907 208.976 156.748L 208.976 146.913C 208.976 144.762 207.306 142.975 205.203 142.781L 205.203 139.155C 205.945 139.054 206.679 138.874 207.425 138.776C 215.184 137.489 215.147 134.598 215.147 134.838L 215.147 128.682L 129.968 128.682L 133.487 130.522C 133.778 130.648 133.967 130.988 133.74 131.356L 124.884 147.9L 124.88 147.906zM 205.195 169.476L 205.195 170.819C 205.195 171.162 204.845 171.444 204.419 171.444L 202.877 171.444C 202.452 171.444 202.1 171.162 202.1 170.819L 202.1 169.476C 201.319 169.905 200.788 170.746 200.788 171.699L 200.788 178.861C 200.788 180.261 201.936 181.403 203.328 181.403L 203.97 181.403C 205.361 181.403 206.509 180.257 206.509 178.861L 206.509 171.699C 206.509 170.746 205.98 169.914 205.195 169.476zM 127.769 173.455L 169.629 173.455C 170.387 173.455 171.016 174.08 171.016 174.838L 171.016 176.244C 171.016 177.005 170.387 177.629 169.629 177.629L 127.769 177.629C 127.008 177.629 126.386 177.005 126.386 176.244L 126.386 174.838C 126.386 174.08 127.008 173.455 127.769 173.455zM 135.123 164.415L 162.277 164.415C 163.038 164.415 163.66 165.045 163.66 165.804L 163.66 167.206C 163.66 167.97 163.038 168.591 162.277 168.591L 135.123 168.591C 134.368 168.591 133.734 167.97 133.734 167.206L 133.734 165.804C 133.734 165.045 134.358 164.415 135.123 164.415zM 136.16 155.903L 161.241 155.903C 161.997 155.903 162.624 156.53 162.624 157.285L 162.624 158.69C 162.624 159.447 161.993 160.073 161.241 160.073L 136.16 160.073C 135.406 160.073 134.778 159.451 134.778 158.69L 134.778 157.285C 134.778 156.525 135.398 155.903 136.16 155.903zM 157.945 147.906L 169.192 147.906C 169.955 147.906 170.575 148.532 170.575 149.286L 170.575 150.693C 170.575 151.447 169.944 152.075 169.192 152.075L 157.945 152.075C 157.208 152.075 156.564 151.447 156.564 150.693L 156.564 149.286C 156.564 148.522 157.187 147.906 157.945 147.906z"/>
<path style="stroke:#ffffff; stroke-width:1.000188; fill:#d9d9d9" d="M 134.671 108.32L 138.925 108.32L 138.925 102.93L 134.671 102.93L 134.671 108.32z"/>
<path style="stroke:#ffffff; stroke-width:1.000188; fill:#d9d9d9" d="M 111.22 98.0155C 118.764 97.6036 126.928 95.0663 134.04 91.4587L 136.256 96.3584C 128.423 100.123 119.608 102.639 112.509 102.995L 111.22 98.0155z"/>
<path style="stroke:#ffffff; stroke-width:1.000188; fill:#d9d9d9" d="M 139.778 88.7093L 135.913 90.5725L 138.126 95.4113L 142.005 93.53L 139.778 88.7133L 139.778 88.7093z"/>
<path style="stroke:#ffffff; stroke-width:1.000188; fill:#d9d9d9" d="M 134.671 116.52L 138.925 116.52L 138.925 111.129L 134.671 111.129L 134.671 116.52z"/>
<path style="stroke:#ffffff; stroke-width:1.000188; fill:#d9d9d9" d="M 134.671 124.722L 138.925 124.722L 138.925 119.331L 134.671 119.331L 134.671 124.722z"/>
<path style="stroke:#ffffff; stroke-width:1.000188; fill:#d9d9d9" d="M 164.754 95.0311L 172.558 90.7267L 188.976 120.514L 181.172 124.814L 164.754 95.0311zM 169.719 99.1566L 173.224 97.1996L 174.171 98.8496L 170.666 100.807L 169.719 99.1566zM 171.718 102.743L 175.228 100.789L 176.175 102.435L 172.663 104.389L 171.718 102.743z"/>
<path style="stroke:#ffffff; stroke-width:1.000188; fill:#d9d9d9" d="M 155.565 86.8552L 164.948 86.8552L 164.948 124.781L 155.565 124.781L 155.565 86.8552zM 141.989 83.3557L 152.488 83.3557L 152.488 124.785L 141.989 124.785L 141.989 83.3557zM 145.229 88.7093L 149.248 88.7093L 149.248 90.5816L 145.229 90.5816L 145.229 88.7093zM 145.229 92.8209L 149.248 92.8209L 149.248 94.694L 145.229 94.694L 145.229 92.8209zM 145.229 96.9283L 149.248 96.9283L 149.248 98.8028L 145.229 98.8028L 145.229 96.9283zM 145.229 101.037L 149.248 101.037L 149.248 102.91L 145.229 102.91L 145.229 101.037zM 158.247 92.8209L 162.267 92.8209L 162.267 94.694L 158.247 94.694L 158.247 92.8209zM 158.247 96.9283L 162.267 96.9283L 162.267 98.8028L 158.247 98.8028L 158.247 96.9283zM 158.247 101.037L 162.267 101.037L 162.267 102.91L 158.247 102.91L 158.247 101.037z"/>
<path style="stroke:#ffffff; stroke-width:1.000188; fill:#d9d9d9" d="M 146.963 227.628C 102.539 227.628 66.3684 191.435 66.3684 147.043C 66.3684 102.6 102.539 66.4067 146.963 66.4067C 191.39 66.4067 227.614 102.6 227.614 147.043C 227.614 191.435 191.39 227.628 146.963 227.628zM 245.172 144.391L 237.47 143.393C 237.168 143.343 236.968 143.242 236.769 142.992C 236.716 141.743 236.669 140.493 236.57 139.293C 236.669 139.043 236.871 138.894 237.168 138.845L 244.672 136.843C 244.774 136.792 244.922 136.743 244.922 136.443C 244.823 135.792 244.774 135.043 244.624 134.194L 244.624 134.143L 244.624 134.095C 244.522 133.293 244.422 132.543 244.323 131.893C 244.274 131.594 244.123 131.594 243.971 131.594L 236.216 131.594C 235.918 131.594 235.668 131.494 235.516 131.294C 235.266 130.095 235.017 128.894 234.765 127.645C 234.868 127.395 235.017 127.246 235.315 127.145L 242.521 124.147C 242.621 124.097 242.771 124.046 242.671 123.747C 242.521 123.096 242.371 122.396 242.121 121.598L 242.121 121.547L 242.121 121.496C 241.871 120.696 241.669 119.947 241.519 119.296C 241.419 119.048 241.271 119.048 241.119 119.048L 233.415 120.096C 233.116 120.147 232.917 120.096 232.665 119.897C 232.315 118.697 231.915 117.548 231.465 116.397C 231.565 116.098 231.715 115.897 231.965 115.748L 238.72 111.898C 238.82 111.847 238.921 111.748 238.82 111.497C 238.621 110.848 238.318 110.148 238.021 109.399L 237.968 109.349L 237.968 109.299C 237.619 108.498 237.32 107.848 237.068 107.199C 236.968 106.95 236.818 106.999 236.669 106.999L 229.165 109.049C 228.864 109.148 228.612 109.099 228.362 108.899C 227.862 107.799 227.31 106.749 226.763 105.699C 226.763 105.349 226.91 105.149 227.164 104.949L 233.317 100.251C 233.415 100.149 233.516 100.049 233.415 99.7999C 233.067 99.2008 232.715 98.5496 232.315 97.8497C 232.315 97.8497 232.315 97.8006 232.266 97.8006L 232.266 97.7524C 231.817 97.0003 231.465 96.3494 231.116 95.8014C 230.965 95.5513 230.815 95.6012 230.665 95.6514L 223.509 98.6505C 223.208 98.8005 222.96 98.7506 222.66 98.5995C 222.007 97.5996 221.359 96.6505 220.708 95.7013C 220.607 95.3492 220.708 95.1011 220.958 94.8511L 226.46 89.3534C 226.562 89.2525 226.662 89.1525 226.511 88.9024C 226.113 88.4023 225.66 87.8013 225.162 87.1033L 225.111 87.1033L 225.111 87.0531L 225.062 87.0531C 224.56 86.354 224.111 85.8029 223.71 85.254C 223.509 85.053 223.359 85.1021 223.259 85.203L 216.555 89.0515C 216.252 89.2525 215.956 89.2525 215.655 89.1026C 214.903 88.2523 214.153 87.3522 213.354 86.504C 213.254 86.2021 213.303 85.9021 213.504 85.6529L 218.258 79.5044C 218.356 79.4043 218.407 79.2543 218.206 79.0522C 217.756 78.5541 217.256 78.0049 216.655 77.4541L 216.655 77.4039L 216.606 77.4039L 216.606 77.3549L 216.555 77.3549C 216.004 76.755 215.456 76.2549 214.956 75.8038C 214.754 75.6037 214.604 75.7057 214.504 75.7548L 208.353 80.5043C 208.101 80.7024 207.798 80.7543 207.499 80.6534C 206.65 79.9033 205.751 79.1032 204.896 78.4041C 204.751 78.0531 204.751 77.8051 204.95 77.5051L 208.851 70.7561C 208.9 70.6552 208.95 70.5041 208.751 70.3541C 208.2 69.9059 207.65 69.456 206.95 68.9559L 206.95 68.906L 206.9 68.906L 206.9 68.8558C 206.199 68.3569 205.599 67.9067 205.099 67.5058C 204.849 67.3567 204.751 67.4548 204.65 67.5557L 199.147 73.0545C 198.895 73.3045 198.645 73.4054 198.346 73.3544C 197.346 72.6553 196.395 72.0064 195.393 71.3552C 195.242 71.1051 195.193 70.804 195.344 70.5041L 198.346 63.3562C 198.395 63.2071 198.446 63.0551 198.192 62.9063C 197.645 62.557 196.995 62.208 196.246 61.7561L 196.196 61.7561C 196.196 61.7561 196.196 61.7079 196.146 61.7079C 195.443 61.3071 194.792 60.9578 194.193 60.606C 193.943 60.5079 193.843 60.606 193.744 60.7077L 189.042 66.8566C 188.839 67.1577 188.638 67.2566 188.29 67.2566C 187.239 66.7058 186.188 66.1566 185.086 65.6574C 184.885 65.4076 184.838 65.1564 184.938 64.8565L 186.991 57.3565C 186.991 57.2576 187.037 57.0566 186.79 56.9593C 186.137 56.7073 185.489 56.4073 184.686 56.0572L 184.637 56.0572L 184.586 56.0572C 183.834 55.7082 183.137 55.4593 182.487 55.2081C 182.239 55.1081 182.137 55.2572 182.086 55.3581L 178.236 62.0569C 178.081 62.3572 177.882 62.506 177.583 62.557C 176.431 62.1071 175.283 61.7079 174.081 61.357C 173.882 61.156 173.831 60.9071 173.882 60.606L 174.933 52.9078C 174.933 52.7578 174.933 52.609 174.683 52.5588C 174.03 52.359 173.28 52.158 172.482 51.9587L 172.482 51.9088L 172.429 51.9088L 172.382 51.9088C 171.581 51.7089 170.878 51.5087 170.227 51.3588C 169.928 51.3086 169.877 51.4078 169.828 51.5586L 166.826 58.7085C 166.727 59.0068 166.576 59.1576 166.326 59.2576C 165.078 59.0068 163.877 58.7576 162.675 58.5075C 162.476 58.3575 162.374 58.1086 162.374 57.8056L 162.374 50.0575C 162.374 49.9586 162.374 49.7584 162.075 49.7584C 161.425 49.6084 160.673 49.5095 159.87 49.4086L 159.822 49.4086L 159.775 49.4086C 158.923 49.3094 158.173 49.2096 157.521 49.1594C 157.222 49.1103 157.171 49.2595 157.171 49.3584L 155.119 56.8575C 155.068 57.1564 154.92 57.3565 154.668 57.5065C 153.471 57.4075 152.217 57.3086 150.966 57.2576C 150.766 57.1073 150.616 56.8575 150.616 56.5573L 149.614 48.8594C 149.567 48.7585 149.516 48.6094 149.266 48.6094C 148.914 48.5595 148.567 48.5595 148.166 48.5595L 148.067 48.5595L 148.016 48.5595L 147.915 48.5595L 147.864 48.5595L 147.815 48.5595L 147.767 48.5595L 147.716 48.5595L 147.665 48.5595L 147.615 48.5595L 147.566 48.5595L 147.466 48.5595L 147.415 48.5595L 147.265 48.5595L 147.216 48.5595L 147.166 48.5595L 147.115 48.5595L 147.064 48.5595L 147.015 48.5595L 146.963 48.5595L 146.916 48.5595L 146.865 48.5595L 146.816 48.5595L 146.764 48.5595L 146.715 48.5595L 146.664 48.5595L 146.613 48.5595L 146.565 48.5595L 146.515 48.5595L 146.465 48.5595L 146.415 48.5595L 146.363 48.5595L 146.312 48.5595L 146.264 48.5595L 146.216 48.5595L 146.163 48.5595L 146.114 48.5595L 146.062 48.5595L 145.714 48.5595C 145.314 48.5595 144.963 48.5595 144.612 48.6094C 144.364 48.6094 144.312 48.7585 144.312 48.8594L 143.312 56.5573C 143.263 56.8575 143.161 57.1073 142.913 57.2576C 141.66 57.3086 140.459 57.4075 139.209 57.5065C 139.012 57.3565 138.861 57.1564 138.81 56.8575L 136.809 49.3584C 136.758 49.2595 136.709 49.1103 136.459 49.1594C 135.759 49.2096 135.008 49.3094 134.207 49.4086L 134.157 49.4086L 134.108 49.4086C 133.258 49.5095 132.507 49.6084 131.857 49.7584C 131.605 49.7584 131.556 49.9586 131.556 50.0575L 131.556 57.8056C 131.605 58.1086 131.508 58.3575 131.305 58.5075C 130.055 58.7576 128.854 59.0068 127.654 59.2576C 127.354 59.1576 127.204 59.0068 127.104 58.7085L 124.152 51.5586C 124.103 51.4078 124.001 51.3086 123.752 51.3588C 123.1 51.5087 122.351 51.7089 121.551 51.9088L 121.5 51.9088C 121.451 51.9088 121.451 51.9088 121.451 51.9587C 120.65 52.158 119.899 52.359 119.299 52.5588C 118.998 52.609 119.049 52.7578 119.049 52.9078L 120.049 60.606C 120.1 60.9071 120.049 61.156 119.849 61.357C 118.699 61.7079 117.498 62.1071 116.348 62.557C 116.099 62.506 115.897 62.3572 115.746 62.0569L 111.845 55.3581C 111.796 55.2572 111.694 55.1081 111.444 55.2081C 110.794 55.4593 110.144 55.7082 109.343 56.0572L 109.294 56.0572L 109.244 56.0572C 108.493 56.4073 107.791 56.7073 107.192 56.9593C 106.942 57.0566 106.942 57.2576 106.993 57.3565L 108.993 64.8565C 109.093 65.1564 109.044 65.4076 108.894 65.6574C 107.791 66.1566 106.691 66.7058 105.643 67.2566C 105.342 67.2566 105.092 67.1577 104.891 66.8566L 100.238 60.7077C 100.139 60.606 100.039 60.5079 99.7885 60.606C 99.2374 60.9578 98.5374 61.3071 97.8372 61.7079L 97.8372 61.7561L 97.7853 61.7561L 97.7374 61.7561C 97.0363 62.208 96.3862 62.557 95.7861 62.9063C 95.5851 63.0551 95.6361 63.2071 95.686 63.3562L 98.6364 70.5041C 98.7863 70.804 98.7863 71.1051 98.5873 71.3552C 97.6362 72.0064 96.6363 72.6553 95.686 73.3544C 95.3359 73.4054 95.085 73.3045 94.836 73.0545L 89.3824 67.5557C 89.2831 67.4548 89.1312 67.3567 88.9313 67.5058C 88.381 67.9067 87.7812 68.3569 87.13 68.8558L 87.0809 68.906L 87.029 68.906L 87.029 68.9559C 86.3809 69.456 85.7788 69.9059 85.2787 70.3541C 85.0306 70.5041 85.1307 70.6552 85.1798 70.7561L 89.0821 77.5051C 89.2321 77.8051 89.2831 78.0531 89.1312 78.4041C 88.2302 79.1032 87.3811 79.9033 86.5309 80.6534C 86.1799 80.7543 85.8789 80.7024 85.6288 80.5043L 79.476 75.7548C 79.3751 75.7057 79.226 75.6037 79.0258 75.8038C 78.524 76.2549 78.0248 76.755 77.4249 77.3549L 77.3758 77.4039C 77.3758 77.4039 77.3758 77.4541 77.3248 77.4541C 76.7737 78.0049 76.2237 78.5541 75.7735 79.0522C 75.5725 79.2543 75.6746 79.4043 75.7236 79.5044L 80.4762 85.6529C 80.6772 85.9021 80.7262 86.2021 80.6262 86.504C 79.876 87.3522 79.1239 88.2523 78.3758 89.1026C 78.0248 89.2525 77.7739 89.2525 77.4756 89.0515L 70.721 85.203C 70.6209 85.1021 70.4718 85.053 70.3218 85.254C 69.8699 85.8029 69.4197 86.354 68.9196 87.0531L 68.8686 87.0531L 68.8686 87.1033C 68.3197 87.8013 67.8687 88.4023 67.5174 88.9024C 67.3184 89.1525 67.4185 89.2525 67.5174 89.3534L 73.0213 94.8511C 73.2713 95.1011 73.3723 95.3492 73.3232 95.7013C 72.6213 96.6505 71.9721 97.5996 71.32 98.5995C 71.07 98.7506 70.7709 98.8005 70.4718 98.6505L 63.3159 95.6514C 63.2179 95.6012 63.067 95.5513 62.9159 95.8014C 62.565 96.3494 62.1658 97.0003 61.7649 97.7524L 61.7159 97.7524L 61.7159 97.8006L 61.7159 97.8497C 61.2648 98.5496 60.9156 99.2008 60.6156 99.7999C 60.4645 100.049 60.5646 100.149 60.6658 100.251L 66.8674 104.949C 67.1185 105.149 67.2195 105.349 67.2195 105.699C 66.6683 106.749 66.1694 107.799 65.6163 108.899C 65.3662 109.099 65.1182 109.148 64.8171 109.049L 57.3111 106.999C 57.2133 106.999 57.0622 106.95 56.9111 107.199C 56.6622 107.848 56.3631 108.498 56.0612 109.299L 56.013 109.299L 56.013 109.349L 56.013 109.399C 55.662 110.148 55.4131 110.848 55.1611 111.497C 55.0619 111.748 55.2121 111.847 55.3119 111.898L 62.0158 115.748C 62.3149 115.897 62.466 116.098 62.5159 116.397C 62.0649 117.548 61.7159 118.697 61.3159 119.897C 61.1157 120.096 60.8648 120.147 60.5646 120.096L 52.8608 119.048C 52.7607 119.048 52.5597 119.048 52.5098 119.296C 52.3105 119.947 52.1095 120.696 51.9096 121.496L 51.8606 121.496L 51.8606 121.547L 51.8606 121.598C 51.6596 122.396 51.4594 123.096 51.3094 123.747C 51.2595 124.046 51.4095 124.097 51.5104 124.147L 58.6623 127.145C 58.9634 127.246 59.1145 127.395 59.2146 127.645C 58.9634 128.894 58.7133 130.095 58.5143 131.294C 58.3144 131.546 58.0624 131.594 57.7642 131.594L 50.0104 131.594C 49.9084 131.594 49.7593 131.594 49.7082 131.893C 49.6082 132.543 49.4602 133.293 49.3581 134.095L 49.3581 134.143L 49.3581 134.194C 49.2572 135.043 49.1582 135.792 49.1072 136.443C 49.0593 136.743 49.2093 136.792 49.3093 136.843L 56.8142 138.845C 57.1133 138.894 57.3111 139.043 57.4634 139.293C 57.3642 140.493 57.2644 141.743 57.2133 142.992C 57.0622 143.242 56.8632 143.343 56.5122 143.393L 48.8073 144.391C 48.708 144.391 48.5572 144.442 48.5572 144.692C 48.509 145.393 48.509 146.142 48.509 146.941L 48.509 146.991L 48.509 147.043L 48.509 147.092C 48.509 147.891 48.509 148.642 48.5572 149.341C 48.5572 149.592 48.708 149.641 48.8073 149.641L 56.5122 150.64C 56.8632 150.692 57.0622 150.79 57.2133 151.043C 57.2644 152.29 57.3642 153.49 57.4634 154.742C 57.3111 154.991 57.1133 155.142 56.8142 155.19L 49.3093 157.19C 49.2093 157.241 49.0593 157.29 49.1072 157.588C 49.1582 158.24 49.2572 158.99 49.3581 159.789L 49.3581 159.841L 49.3581 159.891L 49.3581 159.94C 49.4602 160.739 49.5574 161.489 49.7082 162.141C 49.7082 162.439 49.9084 162.439 50.0104 162.439L 57.7642 162.439C 58.0624 162.439 58.3144 162.49 58.5143 162.689C 58.7133 163.939 58.9634 165.139 59.2146 166.391C 59.1145 166.639 58.9634 166.789 58.6623 166.889L 51.5104 169.888C 51.3596 169.939 51.2595 169.987 51.3094 170.288C 51.4594 170.888 51.6596 171.639 51.8606 172.438L 51.8606 172.488L 51.8606 172.538L 51.9096 172.538C 52.1095 173.338 52.3105 174.088 52.5098 174.736C 52.5597 174.987 52.7607 174.987 52.8608 174.987L 60.5646 173.937C 60.8648 173.888 61.1157 173.937 61.3159 174.137C 61.6657 175.337 62.0649 176.488 62.5159 177.636C 62.466 177.936 62.3149 178.137 62.0158 178.237L 55.3119 182.134C 55.2121 182.185 55.0619 182.286 55.1611 182.535C 55.4131 183.185 55.662 183.884 56.013 184.634L 56.013 184.685L 56.013 184.734C 56.3631 185.535 56.6622 186.185 56.9111 186.835C 57.0123 187.036 57.2133 187.036 57.3111 186.985L 64.8171 184.985C 65.1182 184.888 65.3662 184.934 65.6163 185.134C 66.1183 186.185 66.6683 187.285 67.2195 188.335C 67.2195 188.684 67.1185 188.885 66.8183 189.085L 60.6658 193.785C 60.5646 193.884 60.4645 193.982 60.5646 194.234C 60.9156 194.834 61.2648 195.483 61.6657 196.184C 61.7159 196.184 61.7159 196.233 61.7159 196.233L 61.7159 196.285L 61.7649 196.285C 62.1658 197.035 62.565 197.684 62.9159 198.232C 63.016 198.433 63.166 198.433 63.3159 198.383L 70.4718 195.383C 70.7709 195.234 71.07 195.283 71.32 195.434C 71.9721 196.434 72.6213 197.383 73.3232 198.333C 73.3723 198.685 73.2713 198.934 73.0213 199.184L 67.5174 204.684C 67.4185 204.783 67.3184 204.883 67.5174 205.134C 67.8687 205.632 68.3197 206.232 68.8198 206.934L 68.8686 206.934L 68.8686 206.981L 68.9196 206.981C 69.4197 207.681 69.8699 208.231 70.3218 208.78C 70.4718 208.982 70.6209 208.93 70.721 208.833L 77.4756 204.982C 77.7739 204.783 78.0248 204.783 78.3758 204.931C 79.1239 205.784 79.876 206.683 80.6262 207.532C 80.7262 207.832 80.6772 208.132 80.4762 208.383L 75.7236 214.53C 75.6746 214.632 75.5725 214.781 75.7735 214.98C 76.2237 215.482 76.7238 216.03 77.3248 216.58C 77.3248 216.58 77.3248 216.629 77.3758 216.629L 77.3758 216.679L 77.4249 216.679C 78.0248 217.279 78.524 217.779 79.0258 218.23C 79.226 218.43 79.3751 218.331 79.476 218.28L 85.6288 213.531C 85.8789 213.329 86.1799 213.28 86.4788 213.38C 87.3301 214.13 88.2302 214.932 89.0821 215.63C 89.2321 215.979 89.2321 216.278 89.0311 216.529L 85.1798 223.278C 85.0777 223.379 85.0306 223.529 85.2277 223.729C 85.7788 224.129 86.3809 224.578 87.029 225.078L 87.029 225.13L 87.0809 225.13L 87.0809 225.177C 87.7812 225.678 88.381 226.129 88.9313 226.528C 89.1312 226.678 89.2321 226.578 89.3322 226.48L 94.836 220.979C 95.085 220.73 95.3359 220.63 95.686 220.679C 96.6363 221.379 97.5874 222.028 98.5873 222.679C 98.7353 222.927 98.7863 223.229 98.6364 223.529L 95.6361 230.677C 95.5851 230.828 95.5851 230.978 95.7861 231.128C 96.3372 231.48 96.9853 231.827 97.7374 232.277L 97.7853 232.277C 97.7853 232.327 97.8372 232.327 97.8372 232.327C 98.5374 232.728 99.1875 233.077 99.7885 233.428C 100.039 233.529 100.139 233.428 100.238 233.327L 104.891 227.178C 105.092 226.88 105.291 226.778 105.643 226.778C 106.691 227.329 107.791 227.877 108.843 228.379C 109.044 228.628 109.093 228.879 108.993 229.178L 106.993 236.628C 106.942 236.779 106.942 236.928 107.192 237.027C 107.791 237.278 108.441 237.576 109.244 237.928L 109.294 237.928C 109.343 237.928 109.343 237.928 109.343 237.977C 110.095 238.277 110.794 238.575 111.444 238.775C 111.694 238.877 111.796 238.775 111.845 238.627L 115.746 231.978C 115.848 231.678 116.047 231.528 116.348 231.48C 117.498 231.928 118.648 232.327 119.849 232.678C 120.049 232.877 120.1 233.128 120.049 233.428L 118.998 241.078C 118.998 241.228 118.998 241.376 119.25 241.427C 119.899 241.626 120.65 241.825 121.451 242.075L 121.5 242.075L 121.551 242.075C 122.351 242.325 123.1 242.477 123.701 242.627C 124.001 242.728 124.053 242.579 124.103 242.477L 127.104 235.276C 127.204 235.027 127.354 234.879 127.605 234.777C 128.854 235.027 130.055 235.276 131.305 235.479C 131.508 235.627 131.556 235.878 131.556 236.177L 131.556 243.928C 131.556 244.076 131.556 244.228 131.857 244.276C 132.507 244.376 133.258 244.476 134.06 244.576L 134.108 244.576L 134.157 244.576L 134.207 244.576C 135.008 244.726 135.759 244.778 136.408 244.876C 136.709 244.876 136.758 244.726 136.809 244.627L 138.81 237.127C 138.861 236.828 139.012 236.628 139.209 236.528C 140.411 236.628 141.66 236.679 142.913 236.727C 143.161 236.928 143.263 237.127 143.312 237.428L 144.312 245.126C 144.312 245.226 144.364 245.376 144.612 245.425L 146.062 245.425L 146.114 245.425L 146.163 245.425L 146.216 245.425L 146.264 245.425L 146.312 245.425L 146.363 245.425L 146.415 245.425L 146.465 245.425L 146.515 245.425L 146.565 245.425L 146.613 245.425L 146.664 245.425L 146.715 245.425L 146.764 245.425L 146.816 245.425L 146.865 245.425L 146.916 245.425L 146.963 245.425L 147.015 245.425L 147.064 245.425L 147.115 245.425L 147.166 245.425L 147.216 245.425L 147.265 245.425L 147.415 245.425L 147.466 245.425L 147.566 245.425L 147.615 245.425L 147.665 245.425L 147.716 245.425L 147.767 245.425L 147.815 245.425L 147.864 245.425L 147.915 245.425L 148.016 245.425L 148.067 245.425L 148.166 245.425L 148.865 245.425L 148.965 245.425L 149.016 245.425L 149.266 245.425C 149.516 245.376 149.567 245.226 149.614 245.126L 150.616 237.428C 150.616 237.127 150.766 236.928 150.966 236.727C 152.217 236.679 153.471 236.628 154.668 236.528C 154.92 236.628 155.068 236.828 155.169 237.127L 157.171 244.627C 157.171 244.726 157.273 244.876 157.521 244.876C 158.173 244.778 158.923 244.726 159.775 244.576L 159.822 244.576L 159.87 244.576C 160.722 244.476 161.425 244.376 162.126 244.276C 162.374 244.228 162.374 244.076 162.374 243.928L 162.374 236.177C 162.374 235.878 162.476 235.627 162.675 235.479C 163.877 235.276 165.125 235.027 166.326 234.777C 166.576 234.879 166.776 235.027 166.877 235.276L 169.828 242.477C 169.877 242.579 169.979 242.728 170.227 242.627C 170.878 242.477 171.581 242.325 172.429 242.075L 172.482 242.075L 172.53 242.075C 173.333 241.825 174.03 241.626 174.683 241.427C 174.933 241.376 174.933 241.228 174.933 241.078L 173.882 233.428C 173.831 233.128 173.931 232.877 174.081 232.678C 175.283 232.327 176.431 231.928 177.583 231.48C 177.882 231.528 178.081 231.678 178.236 231.978L 182.086 238.627C 182.186 238.775 182.286 238.877 182.537 238.775C 183.137 238.575 183.834 238.277 184.637 237.977L 184.637 237.928L 184.686 237.928C 185.489 237.576 186.188 237.278 186.79 237.027C 187.037 236.928 186.991 236.779 186.991 236.628L 184.938 229.178C 184.885 228.879 184.885 228.628 185.086 228.379C 186.188 227.877 187.239 227.329 188.339 226.778C 188.638 226.778 188.892 226.88 189.042 227.178L 193.794 233.327C 193.843 233.428 193.994 233.529 194.193 233.428C 194.792 233.077 195.443 232.728 196.196 232.327L 196.196 232.277L 196.246 232.277C 196.995 231.827 197.645 231.48 198.192 231.128C 198.446 230.978 198.395 230.828 198.346 230.677L 195.393 223.529C 195.242 223.229 195.242 222.927 195.393 222.679C 196.395 222.028 197.395 221.379 198.346 220.679C 198.645 220.63 198.944 220.73 199.147 220.979L 204.65 226.48C 204.751 226.578 204.849 226.678 205.099 226.528C 205.65 226.129 206.249 225.678 206.9 225.177L 206.9 225.13L 206.95 225.13C 206.95 225.13 206.95 225.078 206.999 225.078C 207.65 224.578 208.251 224.129 208.751 223.729C 208.95 223.529 208.9 223.379 208.851 223.278L 204.95 216.529C 204.751 216.278 204.751 215.979 204.896 215.63C 205.8 214.932 206.65 214.13 207.499 213.38C 207.849 213.28 208.101 213.329 208.402 213.531L 214.555 218.28C 214.655 218.331 214.754 218.43 214.956 218.23C 215.456 217.779 216.004 217.279 216.606 216.679L 216.606 216.629L 216.655 216.629L 216.655 216.58C 217.256 216.03 217.807 215.482 218.258 214.98C 218.407 214.781 218.356 214.632 218.258 214.53L 213.553 208.383C 213.303 208.132 213.254 207.832 213.354 207.532C 214.153 206.683 214.903 205.784 215.655 204.931C 215.956 204.783 216.252 204.783 216.555 204.982L 223.259 208.833C 223.359 208.93 223.509 208.982 223.71 208.78C 224.111 208.231 224.56 207.681 225.111 206.981L 225.111 206.934L 225.162 206.934C 225.66 206.232 226.113 205.632 226.511 205.134C 226.662 204.883 226.562 204.783 226.46 204.684L 220.958 199.184C 220.708 198.934 220.658 198.685 220.708 198.333C 221.359 197.383 222.007 196.434 222.66 195.434C 222.96 195.283 223.208 195.234 223.509 195.383L 230.713 198.383C 230.815 198.433 230.965 198.433 231.116 198.232C 231.465 197.684 231.817 197.035 232.266 196.285L 232.266 196.233L 232.315 196.233L 232.315 196.184C 232.715 195.483 233.116 194.834 233.415 194.234C 233.565 193.982 233.415 193.884 233.317 193.785L 227.164 189.085C 226.91 188.885 226.763 188.684 226.763 188.335C 227.31 187.285 227.862 186.185 228.362 185.134C 228.612 184.934 228.864 184.888 229.165 184.985L 236.669 186.985C 236.818 187.036 236.968 187.036 237.068 186.835C 237.371 186.185 237.669 185.535 237.968 184.734L 237.968 184.685L 238.021 184.634C 238.318 183.884 238.621 183.185 238.82 182.535C 238.921 182.286 238.82 182.185 238.72 182.134L 231.965 178.237C 231.715 178.137 231.565 177.936 231.514 177.636C 231.915 176.488 232.315 175.337 232.665 174.137C 232.917 173.937 233.116 173.888 233.415 173.937L 241.119 174.987C 241.271 174.987 241.419 174.987 241.519 174.736C 241.669 174.088 241.871 173.338 242.121 172.538L 242.121 172.488L 242.121 172.438C 242.371 171.639 242.521 170.888 242.671 170.288C 242.771 169.987 242.621 169.939 242.521 169.888L 235.315 166.889C 235.017 166.789 234.868 166.639 234.765 166.391C 235.067 165.139 235.266 163.939 235.516 162.689C 235.668 162.49 235.918 162.439 236.216 162.439L 243.971 162.439C 244.123 162.439 244.274 162.439 244.323 162.141C 244.422 161.489 244.522 160.739 244.624 159.94L 244.624 159.891L 244.624 159.841L 244.624 159.789C 244.774 158.99 244.823 158.24 244.922 157.588C 244.922 157.29 244.774 157.241 244.672 157.19L 237.168 155.19C 236.871 155.142 236.669 154.991 236.57 154.742C 236.669 153.49 236.716 152.29 236.769 151.043C 236.968 150.79 237.168 150.692 237.47 150.64L 245.172 149.641C 245.272 149.641 245.422 149.592 245.475 149.341L 245.475 147.092L 245.475 147.043L 245.475 146.991L 245.475 146.941L 245.475 144.692C 245.422 144.442 245.272 144.391 245.172 144.391z"/>
<path style="stroke:#ffffff; stroke-width:1.000188; fill:#d9d9d9" d="M 139.727 199.671C 139.727 200.028 139.403 200.327 139.01 200.327L 131.945 200.327C 131.55 200.327 131.23 200.032 131.23 199.671L 131.23 198.244C 131.23 197.883 131.55 197.59 131.945 197.59L 139.01 197.59C 139.408 197.59 139.727 197.883 139.727 198.244L 139.727 199.671zM 131.347 193.615C 131.347 193.257 131.668 192.966 132.063 192.966L 138.893 192.966C 139.293 192.966 139.617 193.257 139.617 193.615L 139.617 195.004C 139.617 195.361 139.293 195.653 138.893 195.653L 132.063 195.653C 131.668 195.653 131.347 195.361 131.347 195.004L 131.347 193.615zM 142.047 196.588L 141.954 196.55L 141.718 196.462L 141.945 196.354L 142.034 196.311C 142.595 196.039 142.956 195.438 142.956 194.78L 142.956 192.661C 142.956 191.769 142.136 190.986 141.205 190.986L 129.617 190.986C 128.698 190.986 127.951 191.736 127.951 192.661L 127.951 194.78C 127.951 195.436 128.31 196.035 128.867 196.311L 128.956 196.356L 129.182 196.464L 128.947 196.552L 128.854 196.588C 128.223 196.823 127.8 197.462 127.8 198.174L 127.8 200.631C 127.8 201.555 128.494 202.306 129.347 202.306L 141.558 202.306C 142.413 202.306 143.109 201.555 143.109 200.631L 143.109 198.174C 143.109 197.462 142.684 196.823 142.047 196.588z"/>
<path style="stroke:#ffffff; stroke-width:1.000188; fill:#d9d9d9" d="M 123.274 202.297L 119.69 202.297L 119.69 193.768C 119.68 193.437 119.413 193.425 119.283 193.42C 119.102 193.42 118.901 193.465 118.71 193.507L 116.042 194.13L 116.042 192.081L 118.858 191.368C 118.981 191.337 119.107 191.303 119.233 191.268C 119.715 191.135 120.214 191 120.683 190.997L 122.833 190.997C 123.121 191 123.273 191.16 123.274 191.463L 123.274 202.297z"/>
<path style="stroke:#ffffff; stroke-width:1.000188; fill:#d9d9d9" d="M 41.8102 87.9873C 40.9282 87.0151 42.7185 84.2139 43.6116 85.9599C 43.7394 87.1331 42.6185 88.2705 41.8102 87.9873zM 60.4827 74.8397C 58.9234 74.8887 53.5477 75.6749 52.3975 76.2969C 49.6564 77.781 48.5703 79.2203 46.8729 81.7775C 46.1829 82.8105 45.4348 84.2289 44.2455 83.1627C 43.3646 82.3745 42.5065 83.5777 41.4862 83.2738C 40.3811 82.9458 40.4242 81.9635 39.991 81.1234C 39.3741 79.9242 37.9367 81.2326 37.1217 81.3735C 36.4767 80.9275 36.9088 79.0981 36.2655 78.6502C 34.1574 78.6213 33.6862 79.9333 34.1673 81.6564C 34.6734 83.4708 32.9812 84.5198 33.1022 86.2511C 33.6803 86.8102 34.5543 86.627 35.1604 86.252C 35.9576 86.6041 36.2525 87.5184 36.5076 88.2654C 36.9346 89.5145 37.4817 88.8443 38.476 88.8043C 43.5166 88.5854 40.0052 94.8103 39.337 97.2464C 38.978 98.5615 38.4839 100.453 39.204 101.735C 39.644 102.522 40.8851 104.924 41.1383 105.447C 42.2905 107.407 47.94 110.148 45.9677 105.866C 44.6857 103.085 42.0963 101.398 42.5944 98.0546C 43.1744 94.1412 43.8936 91.2589 45.5147 87.6593C 46.854 84.6958 49.6473 82.2155 52.1455 80.2625C 53.3739 79.3002 54.6539 78.5011 56.2681 78.4781C 57.8892 78.4571 59.6166 79.034 61.1818 78.3531C 61.8919 77.3869 61.2308 75.5748 60.4827 74.8397zM 52.0034 93.9209C 52.0026 93.9311 52.0006 93.9399 51.9995 93.949C 51.8365 96.0922 49.9152 96.1813 49.6983 95.4861C 49.5322 94.9951 50.6475 92.5539 51.7455 93.1818C 51.8325 93.2329 52.0205 93.5759 52.0176 93.668C 52.0176 93.7219 52.0156 93.7792 52.0097 93.835C 52.0066 93.8639 52.0046 93.8911 52.0034 93.9209zM 48.0812 92.8598C 47.064 91.3626 48.8753 89.5505 49.2813 88.0794C 49.4593 87.8362 49.5563 87.5062 49.9773 87.4772C 50.3994 87.4503 50.0564 87.4341 50.8014 87.8872C 51.5476 88.3394 49.0962 94.3592 48.0812 92.8598zM 55.7119 82.3266C 55.6039 82.3476 55.4369 82.5327 55.4069 82.6047C 54.6848 84.2638 56.2472 89.5666 53.5868 89.5964C 52.6626 88.1293 54.2879 85.091 52.1276 84.1189C 50.4984 83.3826 49.3402 84.3987 48.5561 85.7459C 46.888 88.6163 44.9948 91.8709 45.3299 95.5213C 45.8708 96.4874 47.269 96.3545 47.8609 97.2625C 47.485 98.4297 46.0037 98.7367 46.4349 100.532C 46.4548 100.61 46.6518 100.841 46.7238 100.869C 51.1425 102.641 51.1014 96.7843 54.2879 97.2254C 54.8699 97.7005 54.0747 99.5498 54.9229 100.233C 57.4492 100.501 58.7264 96.8755 57.5944 94.984C 55.89 92.1357 57.2513 91.2747 58.0823 88.5154C 58.3113 86.5921 60.3026 84.803 58.6484 82.7847C 58.3034 82.2906 56.3532 82.1965 55.7119 82.3266zM 37.9728 77.189C 38.5919 76.759 38.8388 76.787 39.185 76.0479C 39.5289 75.3188 40.0621 74.7566 40.9152 74.7217C 41.9664 75.9479 39.7911 77.993 41.4564 79.0292C 43.1004 79.1633 42.4713 77.5309 44.1165 77.6659C 45.4308 79.4392 42.8645 79.9954 43.6436 82.0967C 46.2538 82.9696 47.0411 79.2263 46.9739 77.398C 46.9291 76.173 46.6578 74.3515 45.6879 73.5064C 44.6356 72.5924 43.1994 71.3903 41.8893 70.8911C 40.014 70.1769 38.8958 71.4912 38.1049 73.0185C 37.3519 74.4697 35.9205 75.7608 36.0135 77.5301C 36.0787 78.746 37.5498 77.4819 37.9728 77.189zM 38.478 90.7568C 38.415 90.6626 37.9348 90.5087 37.7927 90.5416C 36.0827 90.9016 35.9596 94.1191 35.0385 93.4679C 34.1154 92.815 35.6325 90.7446 34.5603 89.6695C 31.4551 88.9554 33.3092 92.8008 31.2399 93.945C 30.7438 93.7851 30.388 93.759 30.261 93.2918C 30.1317 92.826 32.3631 89.1113 31.615 88.7513C 29.6359 87.4602 29.4717 89.4674 29.3297 90.9918C 29.2758 91.5928 28.8707 92.616 28.7947 92.7438C 27.6375 94.7383 29.2047 95.9323 31.1469 96.7015C 32.6662 97.3033 35.9185 98.2976 37.0936 96.7545C 38.1757 95.3313 39.678 92.487 38.478 90.7568z"/>
<path style="stroke:#ffffff; stroke-width:1.000188; fill:#d9d9d9" d="M 200.086 34.5716C 200.051 34.5625 199.866 34.3987 199.805 34.3275C 198.42 32.7133 195.513 31.5923 193.392 31.4554C 193.275 31.4483 193.066 31.3981 192.931 31.3502C 192.931 31.3502 192.798 31.2592 192.79 31.2442C 192.355 30.7602 191.669 28.8409 193.23 29.3371C 194.948 29.882 194.937 30.007 196.211 30.462C 197.35 30.8683 199.223 31.4752 200.235 31.9583C 200.272 31.9753 200.309 31.9923 200.344 32.0102C 200.418 32.0493 200.489 32.0873 200.553 32.1202L 200.532 32.1193C 200.711 32.2222 200.881 32.3393 201.039 32.4865C 202.381 33.7115 201.909 35.0507 200.086 34.5716zM 195.232 39.1172C 195.573 37.0729 198.182 39.2692 197.557 40.6283C 197.523 40.6983 197.311 40.8063 197.254 40.7913C 196.903 40.6813 196.647 40.4534 196.407 40.2093C 196.063 39.8623 195.221 39.1952 195.232 39.1172zM 198.413 45.06C 197.975 46.321 194.595 44.0799 194.663 42.5036C 194.665 42.4407 194.747 42.3015 194.779 42.2987C 195.829 42.1547 198.856 43.7757 198.413 45.06zM 195.83 50.5766C 195.769 50.6577 195.462 50.8326 195.371 50.8385C 193.548 50.9157 190.731 49.9606 190.683 47.8692C 190.658 46.6782 191.578 45.9641 192.687 45.826C 193.087 45.7769 193.415 45.8861 193.72 46.048C 194.212 46.3102 194.738 46.4851 195.229 46.8211C 195.337 46.8931 195.439 46.9691 195.534 47.0482C 196.721 48.0302 196.731 49.3604 195.83 50.5766zM 189.394 41.8695C 188.874 41.6336 187.002 40.6413 187.23 39.8583C 187.457 39.2451 188.507 38.851 190.579 40.2382C 190.663 40.2963 190.806 40.6773 190.79 40.8095C 190.695 41.6336 190.552 42.4047 189.394 41.8695zM 185.655 46.7851C 184.543 46.0851 183.707 44.8649 183.971 44.2857C 185.114 42.3636 189.175 42.6596 189.193 45.263C 189.203 46.8041 186.748 47.4743 185.655 46.7851zM 190.087 37.209C 190.476 36.1459 192.085 36.7319 192.3 37.6439C 192.316 37.717 192.169 37.8939 192.095 37.907C 191.382 38.0411 190.767 38.0672 190.113 37.461C 190.087 37.4369 190.068 37.264 190.087 37.209zM 178.994 41.8215C 179.392 41.4374 180.057 40.9705 181.266 41.9727C 181.328 42.0245 181.487 42.3007 181.496 42.3766C 181.977 45.9439 176.452 44.3708 178.994 41.8215zM 173.576 43.7959C 172.454 43.3108 174.145 36.9198 176.238 38.3362C 178.327 39.7523 174.691 44.2798 173.576 43.7959zM 204.392 31.4613C 200.409 29.205 196.326 27.4799 191.798 26.6787C 189.593 26.2906 187.45 31.0732 189.673 32.3663C 190.556 32.8805 194.017 32.7334 193.888 34.2076L 193.886 34.2127C 193.726 35.1346 190.339 33.3866 187.673 34.8696C 187.509 34.9606 187.387 35.0428 187.306 35.1137C 186.508 35.6549 185.848 36.6159 185.104 37.3009C 184.344 38.002 183.248 39.5842 182.041 39.3832C 181.08 39.2173 179.428 37.645 179.534 37.431C 179.969 36.5748 181.2 37.116 181.963 36.1328C 183.352 34.3425 183.055 32.2594 183.84 30.293C 184.684 28.1767 188.096 28.776 188.136 25.7315C 188.153 24.4935 186.995 23.7904 186.146 22.9612L 185.094 22.2082C 184.59 21.8972 182.512 21.9261 182.846 23.4683C 183.008 24.2185 184.364 26.2977 183 26.6376C 181.153 27.1017 178.579 26.2795 176.79 25.8236C 176.478 25.7426 174.232 24.9493 173.89 25.0055C 173.613 25.0486 173.376 25.1226 173.226 25.2626C 172.478 26.0187 172.538 27.3466 173.152 28.0837C 173.163 28.0939 173.173 28.1078 173.185 28.1189C 173.214 28.1549 173.327 28.2459 173.376 28.2589C 173.775 28.3629 175.238 28.4539 175.27 28.4539C 176.109 28.4457 177.587 28.784 178.665 29.258L 178.665 29.25C 179.834 29.7992 180.479 30.2202 179.205 30.6071C 179.184 30.6151 179.161 30.619 179.138 30.6281C 179.133 30.6301 179.127 30.6312 179.121 30.6332C 177.279 31.2632 173.972 29.6382 172.14 30.566C 172.081 30.5952 171.954 30.6891 171.928 30.7322C 171.763 31.0131 171.259 32.0504 171.847 32.3634C 172.402 32.6602 173.189 32.8335 173.642 32.8763C 174.001 32.9075 176.339 32.8664 177.425 32.8224C 177.743 32.8105 178.167 32.6923 178.267 32.6495C 178.466 32.5633 178.681 32.4904 178.922 32.4553C 179.703 32.3433 180.358 32.4933 179.997 33.4475C 179.548 34.6385 175.236 35.8267 174.097 35.5528C 172.956 35.2818 171.689 36.7829 171.644 37.008C 171.445 38.0609 171.545 39.2233 171.058 40.3383C 170.41 41.8255 169.065 43.8687 169.799 45.53C 169.992 46.0701 173.351 46.2362 177.201 46.774C 177.462 46.8112 177.724 46.8523 177.984 46.8863C 180.422 47.2571 182.983 47.7884 185.012 48.6675C 185.801 49.0086 186.453 49.2725 186.997 49.4786C 189.798 50.9057 192.685 52.698 193.138 53.22C 195.365 55.7973 198.811 60.0347 200.137 58.2206C 200.041 56.4124 199.006 55.0953 198.232 53.5451C 197.909 52.888 198.795 52.6008 199.143 52.1497C 200.44 50.4796 200.77 47.9352 201.202 45.9312C 201.565 44.2568 201.805 42.5496 202.239 40.8945C 202.744 38.9902 200.151 37.691 198.452 37.2019C 198.227 37.1378 197.83 36.7168 197.862 36.5839C 198.174 35.2276 200.664 36.3219 202.207 37.3009C 202.799 37.6759 204.33 37.592 204.65 37.0468C 205.13 36.2227 205.445 35.1868 205.865 34.5285C 206.878 32.9415 205.681 32.1922 204.392 31.4613z"/>
<path style="stroke:#ffffff; stroke-width:1.000188; fill:#d9d9d9" d="M 22.8338 154.375C 22.7769 153.523 22.8061 151.529 22.8089 150.176C 23.6279 150.266 24.602 150.319 25.5974 150.327L 25.6053 150.444C 24.748 151.52 24.2111 152.978 24.3132 154.54C 24.4022 155.909 25.1373 156.763 26.3283 156.685C 27.1825 156.628 27.6775 156.241 28.2325 155.421C 29.0578 154.205 29.5298 152.774 30.5048 151.453C 31.6059 149.981 32.7121 149.603 34.0854 149.513C 35.4334 149.424 38.0938 150.009 38.4218 155.065C 38.4839 156.01 38.5349 157.501 38.4839 158.763C 37.7737 158.618 36.7466 158.472 35.7926 158.368L 35.7844 158.251C 36.5068 157.563 37.0647 156.768 36.9496 154.997C 36.8396 153.318 35.8627 152.551 34.8744 152.615C 33.6823 152.692 33.0172 152.904 31.649 155.838C 29.9457 159.508 28.8268 159.675 27.4095 159.769C 25.7003 159.879 23.142 159.099 22.8338 154.375z"/>
<path style="stroke:#ffffff; stroke-width:1.000188; fill:#d9d9d9" d="M 33.3622 174.192C 31.6079 174.495 27.6315 175.307 25.9844 175.95C 25.8863 175.053 25.8262 174.727 25.7043 174.077C 25.6093 173.565 25.5223 173.099 25.2481 171.995C 27.3664 171.793 30.532 171.3 32.1721 170.996C 32.011 169.892 31.9342 169.353 31.778 168.514C 31.6221 167.677 31.45 166.866 31.2311 165.943C 28.7757 166.426 26.6515 166.845 24.4172 167.526C 24.3282 166.675 24.2051 166.024 24.136 165.652C 24.037 165.117 23.9551 164.675 23.6829 163.593C 25.7893 163.441 29.4848 162.851 31.1469 162.541C 32.7663 162.24 38.0898 161.392 38.5718 160.533L 38.66 160.515C 38.785 161.43 38.8709 162.016 38.9919 162.67C 39.117 163.344 39.2649 164.015 39.439 164.706C 37.9257 164.699 35.7535 165.103 32.9381 165.627C 33.0912 166.826 33.1822 167.314 33.3423 168.176C 33.4994 169.012 33.5734 169.41 33.8784 170.677C 37.2649 170.023 38.8258 169.78 40.1532 168.908L 40.224 168.917C 40.2972 169.674 40.3961 170.21 40.5563 171.072C 40.6771 171.722 40.8591 172.579 41.0082 173.129C 39.0089 173.237 35.4054 173.836 33.3622 174.192z"/>
<path style="stroke:#ffffff; stroke-width:1.000188; fill:#d9d9d9" d="M 40.1852 181.27L 40.1571 181.179C 38.1998 181.15 36.5025 181.18 34.6995 181.249C 34.8384 181.826 34.9574 182.26 35.1275 182.778C 35.3716 183.52 35.4964 183.828 35.7167 184.354C 37.2048 183.393 38.77 182.306 40.1852 181.27zM 30.3818 189.938C 30.1538 189.24 29.9528 188.633 29.6447 187.913C 31.188 187.333 33.3792 185.917 34.4134 185.229C 34.2274 184.517 34.0293 183.835 33.8132 183.183C 33.5992 182.531 33.3222 181.825 33.1382 181.336C 31.8642 181.356 29.1287 181.554 27.7874 182.243C 27.5587 181.471 27.4844 181.097 27.2995 180.535C 27.1014 179.927 26.9035 179.394 26.6543 178.779C 27.5947 178.968 29.2869 179.137 29.9877 179.181C 31.463 179.271 33.5374 179.364 35.1624 179.404C 36.6236 179.448 38.98 179.474 40.7992 179.451C 41.3232 179.454 42.1824 179.47 42.6445 179.144L 42.7735 179.102C 43.0094 179.823 43.2144 180.376 43.3836 180.821C 43.6206 181.465 43.8687 182.082 44.1556 182.735C 43.7255 182.95 42.9346 183.433 42.2513 183.882C 40.8851 184.777 39.198 185.929 37.9237 186.82C 35.7824 188.318 34.5725 189.188 33.5122 190.008C 33.0563 190.357 31.947 191.243 31.0539 192.208C 30.7869 191.25 30.5949 190.59 30.3818 189.938z"/>
<path style="stroke:#ffffff; stroke-width:1.000188; fill:#d9d9d9" d="M 43.7774 202.173C 42.8413 202.621 38.959 204.429 37.3218 205.398C 36.9136 204.489 36.4427 203.666 35.9426 202.936C 37.1086 201.089 39.3591 197.804 40.3751 196.375L 43.4375 192.019L 43.4066 191.954L 39.443 193.855C 38.6909 194.215 34.7153 196.407 33.4342 197.442C 33.2312 196.908 33.0461 196.472 32.8111 195.983C 32.5871 195.511 32.309 194.988 32.055 194.559C 34.2623 194.106 39.6222 191.616 40.6581 191.119C 41.4502 190.739 44.7237 189.276 45.7897 188.11L 45.8918 188.062C 46.137 188.677 46.444 189.371 46.772 190.054C 47.1091 190.758 47.4459 191.411 47.7529 191.945C 46.981 192.839 45.2777 194.97 44.4757 196.168C 42.9034 198.523 41.8885 199.954 41.0181 201.263L 41.0473 201.327L 43.6907 200.062C 45.2156 199.33 49.1183 197.196 49.8602 196.343C 50.0034 196.748 50.2803 197.377 50.5054 197.845C 50.8113 198.486 50.8425 198.549 51.2295 199.206C 49.2892 199.691 44.8556 201.655 43.7774 202.173z"/>
<path style="stroke:#ffffff; stroke-width:1.000188; fill:#d9d9d9" d="M 49.2552 217.846C 48.7341 218.16 47.6911 218.79 46.683 219.596C 45.1467 217.999 44.2976 216.915 43.1906 215.236C 40.5081 211.162 40.9433 207.928 45.6888 204.804C 48.6071 202.883 52.8378 201.682 56.5091 207.259C 57.5121 208.781 58.5894 210.622 59.0875 211.541C 58.0383 211.834 57.2133 212.181 56.25 212.644L 56.1581 212.507C 56.5182 211.248 56.2622 209.548 55.1679 207.885C 53.4626 205.297 50.7413 205.756 47.673 207.778C 43.3794 210.604 43.3955 212.635 44.9698 215.029C 45.6848 216.115 46.3468 215.848 46.9311 215.464L 48.2862 214.572C 48.9082 214.162 49.6612 213.666 50.1513 212.691L 50.2594 212.649C 50.5874 213.227 50.9846 213.871 51.3625 214.446C 51.8574 215.198 51.9995 215.414 52.5118 216.071C 51.7636 216.365 50.2475 217.222 49.2552 217.846z"/>
<path style="stroke:#ffffff; stroke-width:1.000188; fill:#d9d9d9" d="M 62.7498 227.474C 61.3958 228.632 58.3933 231.364 57.3072 232.757C 56.7643 232.037 56.5451 231.787 56.108 231.288C 55.7649 230.897 55.4511 230.541 54.6499 229.731C 56.3691 228.476 58.8375 226.436 60.0917 225.335C 59.3915 224.469 59.0496 224.044 58.4865 223.406C 57.9243 222.764 57.3602 222.157 56.7022 221.475C 54.8379 223.143 53.2268 224.59 51.6516 226.317C 51.1416 225.632 50.7045 225.133 50.4544 224.848C 50.0952 224.439 49.7984 224.101 49.0142 223.31C 50.7456 222.105 53.6197 219.707 54.892 218.593C 56.1281 217.507 60.2706 214.057 60.2456 213.072L 60.3137 213.012C 60.8898 213.737 61.2628 214.197 61.6997 214.694C 62.1527 215.209 62.6219 215.709 63.124 216.215C 61.8188 216.982 60.1586 218.441 58.0074 220.329C 58.7524 221.282 59.0805 221.656 59.6577 222.312C 60.2207 222.954 60.4858 223.256 61.3958 224.189C 63.974 221.896 65.1902 220.89 65.8864 219.461L 65.9522 219.434C 66.4004 220.049 66.7593 220.456 67.3374 221.116C 67.7746 221.615 68.3685 222.257 68.7767 222.655C 67.1146 223.767 64.3241 226.123 62.7498 227.474z"/>
<path style="stroke:#ffffff; stroke-width:1.000188; fill:#d9d9d9" d="M 72.2411 230.083L 72.1702 230.02C 70.4709 230.991 69.0276 231.886 67.5115 232.865C 67.9276 233.288 68.2505 233.604 68.6596 233.961C 69.2476 234.477 69.5118 234.676 69.9697 235.018C 70.7598 233.432 71.553 231.696 72.2411 230.083zM 68.2296 242.541C 67.6776 242.06 67.1973 241.637 66.5643 241.174C 67.5945 239.888 68.7586 237.552 69.2958 236.434C 68.7728 235.917 68.2537 235.433 67.7366 234.98C 67.2195 234.528 66.6204 234.063 66.2145 233.737C 65.1272 234.404 62.876 235.971 62.0748 237.245C 61.4837 236.699 61.2288 236.415 60.7826 236.026C 60.3015 235.605 59.8595 235.248 59.3314 234.846C 60.2357 234.53 61.7777 233.811 62.4039 233.489C 63.7191 232.814 65.5482 231.837 66.9686 231.041C 68.2477 230.333 70.2869 229.154 71.8399 228.205C 72.2921 227.94 73.0392 227.517 73.2702 227.001L 73.3604 226.898C 73.9293 227.397 74.3903 227.77 74.7614 228.065C 75.2935 228.501 75.8226 228.903 76.4006 229.319C 76.1426 229.722 75.7086 230.541 75.3494 231.275C 74.6313 232.743 73.7672 234.595 73.1262 236.012C 72.0492 238.393 71.451 239.757 70.96 241.004C 70.7448 241.537 70.243 242.865 69.9688 244.151C 69.2488 243.464 68.7467 242.994 68.2296 242.541z"/>
<path style="stroke:#ffffff; stroke-width:1.000188; fill:#d9d9d9" d="M 73.9724 246.841C 73.3964 246.427 72.9992 246.167 72.166 245.622C 73.9634 243.695 75.8685 241.095 76.9086 239.649C 78.3979 237.581 80.5312 234.784 80.8311 233.11L 80.8711 233.054C 81.4404 233.521 81.9274 233.9 82.4823 234.3C 83.0393 234.703 83.6815 235.11 84.3667 235.574C 82.9514 236.971 80.4802 240.443 79.9781 241.137C 79.148 242.291 76.7556 245.57 75.5076 248.032C 74.6886 247.386 74.3183 247.091 73.9724 246.841z"/>
<path style="stroke:#ffffff; stroke-width:1.000188; fill:#d9d9d9" d="M 91.7686 248.864C 90.7514 250.699 89.6253 252.78 89.2103 253.53C 87.964 255.778 85.9517 256.775 81.0282 254.719L 81.4693 253.34C 83.4725 254.166 84.6678 254.159 85.9707 252.199C 86.4479 251.484 87.5169 249.602 88.3031 248.181C 89.6684 245.717 91.9086 242.111 91.9035 240.46L 91.9585 240.361C 92.6616 240.801 93.2728 241.167 93.8509 241.485C 94.4318 241.808 95.001 242.098 95.707 242.437C 94.2628 244.165 92.5868 247.385 91.7686 248.864z"/>
<path style="stroke:#ffffff; stroke-width:1.000188; fill:#d9d9d9" d="M 95.7141 259.452C 94.7898 258.968 94.37 258.747 93.9847 258.567C 93.3409 258.264 92.9026 258.084 91.9835 257.703C 93.3927 255.476 94.7811 252.566 95.536 250.953C 96.6161 248.645 98.1944 245.501 98.1794 243.802L 98.2074 243.74C 98.8535 244.093 99.4024 244.373 100.024 244.665C 100.645 244.956 101.35 245.235 102.11 245.567C 100.977 247.203 99.1934 251.072 98.8274 251.847C 98.2284 253.135 96.4852 256.8 95.7129 259.452L 95.7141 259.452z"/>
<path style="stroke:#ffffff; stroke-width:1.000188; fill:#d9d9d9" d="M 108.305 251.475L 108.216 251.445C 106.991 252.97 105.975 254.33 104.923 255.798C 105.465 256.039 105.88 256.212 106.393 256.395C 107.129 256.659 107.45 256.748 107.999 256.899C 108.153 255.134 108.255 253.23 108.305 251.475zM 109.138 264.537C 108.448 264.289 107.846 264.075 107.086 263.874C 107.575 262.302 107.802 259.702 107.892 258.465C 107.215 258.173 106.555 257.913 105.908 257.682C 105.262 257.452 104.533 257.24 104.035 257.085C 103.268 258.104 101.748 260.386 101.471 261.867C 100.721 261.574 100.379 261.403 99.8225 261.204C 99.2195 260.99 98.6763 260.819 98.0373 260.639C 98.7654 260.013 99.9356 258.78 100.401 258.25C 101.377 257.139 102.721 255.56 103.748 254.301C 104.68 253.172 106.145 251.327 107.243 249.875C 107.565 249.463 108.107 248.794 108.132 248.23L 108.179 248.102C 108.892 248.358 109.456 248.536 109.909 248.675C 110.564 248.885 111.202 249.065 111.894 249.242C 111.802 249.71 111.699 250.631 111.634 251.445C 111.503 253.077 111.378 255.114 111.3 256.665C 111.171 259.278 111.115 260.766 111.115 262.106C 111.111 262.681 111.129 264.099 111.345 265.398C 110.423 265.021 109.784 264.768 109.138 264.537z"/>
<path style="stroke:#ffffff; stroke-width:1.000188; fill:#d9d9d9" d="M 118.346 259.444C 117.598 262.926 118.029 265.533 120.666 266.101C 123.769 266.769 124.955 263.841 125.601 260.842C 126.207 258.021 126.41 254.606 123.4 253.96C 120.369 253.306 119.053 256.16 118.346 259.444zM 129.127 261.556C 128.388 264.994 126.524 268.928 120.346 267.6C 116.596 266.794 113.472 264.992 114.834 258.665C 115.625 254.984 117.475 251.116 123.631 252.441C 128.908 253.576 130.175 256.685 129.127 261.556z"/>
<path style="stroke:#ffffff; stroke-width:1.000188; fill:#d9d9d9" d="M 148.37 257.201L 148.23 257.195C 147.716 256.929 146.12 256.555 144.156 256.483C 144.139 256.956 143.957 260.016 143.839 263.263C 143.722 266.462 143.91 269.739 144.01 270.263C 143.067 270.183 142.806 270.151 141.978 270.122C 141.268 270.095 140.748 270.075 139.869 270.112C 140.275 268.141 140.473 263.952 140.531 262.419C 140.59 260.798 140.647 257.868 140.68 256.357C 139.022 256.297 136.887 256.398 136.259 256.76L 136.116 256.755C 136.282 256.106 136.457 255.187 136.478 254.602C 138.675 254.816 140.472 254.905 142.481 254.978C 144.659 255.056 146.764 255.134 148.922 255.056C 148.691 255.565 148.518 256.439 148.37 257.201z"/>
<path style="stroke:#ffffff; stroke-width:1.000188; fill:#d9d9d9" d="M 152.762 262.724C 153.061 266.274 154.235 268.642 156.923 268.414C 160.083 268.15 160.367 265.004 160.109 261.949C 159.868 259.073 159.066 255.744 155.999 256.002C 152.907 256.264 152.481 259.376 152.762 262.724zM 163.692 261.6C 163.987 265.106 163.351 269.413 157.054 269.943C 153.231 270.265 149.718 269.452 149.177 263.002C 148.861 259.25 149.5 255.014 155.777 254.484C 161.156 254.033 163.274 256.636 163.692 261.6z"/>
<path style="stroke:#ffffff; stroke-width:1.000188; fill:#d9d9d9" d="M 178.05 258.883C 178.275 259.896 179.161 264.086 179.735 265.9C 178.761 266.092 177.851 266.365 177.025 266.689C 175.49 265.136 172.798 262.202 171.634 260.891L 168.082 256.924L 168.012 256.941L 168.969 261.232C 169.153 262.046 170.391 266.412 171.111 267.892C 170.545 267.972 170.078 268.054 169.547 268.171C 169.039 268.284 168.465 268.435 167.991 268.589C 168.045 266.335 166.83 260.554 166.578 259.432C 166.389 258.573 165.7 255.053 164.803 253.752L 164.778 253.642C 165.436 253.542 166.18 253.4 166.92 253.235C 167.68 253.065 168.393 252.883 168.983 252.705C 169.68 253.658 171.371 255.799 172.357 256.848C 174.298 258.911 175.462 260.222 176.544 261.367L 176.609 261.351L 175.974 258.491C 175.605 256.842 174.408 252.558 173.743 251.642C 174.169 251.595 174.845 251.468 175.351 251.355C 176.046 251.199 176.117 251.183 176.837 250.952C 176.872 252.953 177.79 257.716 178.05 258.883z"/>
<path style="stroke:#ffffff; stroke-width:1.000188; fill:#d9d9d9" d="M 194.562 257.139C 194.747 257.72 195.12 258.879 195.678 260.044C 193.769 261.175 192.519 261.752 190.63 262.446C 186.051 264.12 183.002 262.955 181.049 257.621C 179.846 254.34 179.65 249.947 185.92 247.652C 187.632 247.024 189.671 246.397 190.679 246.123C 190.726 247.212 190.872 248.094 191.103 249.139L 190.947 249.196C 189.806 248.556 188.091 248.416 186.223 249.099C 183.311 250.167 183.135 252.919 184.399 256.37C 186.164 261.199 188.146 261.648 190.837 260.664C 192.058 260.217 191.953 259.511 191.71 258.855L 191.152 257.329C 190.898 256.633 190.587 255.785 189.749 255.083L 189.734 254.969C 190.37 254.784 191.089 254.544 191.736 254.308C 192.581 253.999 192.824 253.91 193.578 253.562C 193.695 254.36 194.181 256.03 194.562 257.139z"/>
<path style="stroke:#ffffff; stroke-width:1.000188; fill:#d9d9d9" d="M 210.809 240.531C 211.645 242.028 212.635 243.826 213.524 245.317C 214.979 247.756 215.03 250.246 210.964 252.671C 206.695 255.217 204.761 254.191 203.146 251.482C 202.729 250.785 201.661 248.901 200.911 247.642C 200.379 246.752 198.61 243.554 197.418 242.9L 197.385 242.842C 197.938 242.564 198.619 242.183 199.231 241.819C 199.838 241.455 200.327 241.165 201.084 240.634C 201.713 242.516 203.811 245.99 204.355 246.901C 205.704 249.165 206.603 250.627 207.175 251.125C 207.98 251.826 209.222 251.925 210.402 251.221C 213.19 249.56 212.389 247.803 210.634 244.862C 208.175 240.736 207.312 239.151 205.742 237.857C 206.191 237.642 206.589 237.429 207.3 237.006C 207.931 236.63 208.263 236.405 208.73 236.075C 209.328 238.002 210.299 239.629 210.809 240.531z"/>
<path style="stroke:#ffffff; stroke-width:1.000188; fill:#d9d9d9" d="M 224.445 233.9C 225.091 234.712 227.722 238.09 229.032 239.47C 228.241 240.072 227.542 240.714 226.939 241.366C 224.882 240.642 221.177 239.181 219.556 238.512L 214.625 236.502L 214.571 236.546L 217.309 239.984C 217.829 240.636 220.855 244.02 222.148 245.038C 221.675 245.355 221.291 245.632 220.863 245.971C 220.458 246.296 220.007 246.682 219.647 247.026C 218.711 244.977 215.088 240.311 214.372 239.412C 213.825 238.724 211.666 235.861 210.289 235.083L 210.218 234.995C 210.767 234.617 211.372 234.162 211.967 233.69C 212.577 233.204 213.137 232.729 213.59 232.311C 214.635 232.863 217.09 234.048 218.436 234.562C 221.085 235.568 222.705 236.236 224.179 236.794L 224.234 236.75L 222.408 234.456C 221.355 233.133 218.405 229.805 217.405 229.274C 217.764 229.044 218.317 228.633 218.726 228.31C 219.28 227.868 219.336 227.823 219.888 227.299C 220.796 229.085 223.703 232.963 224.445 233.9z"/>
<path style="stroke:#ffffff; stroke-width:1.000188; fill:#d9d9d9" d="M 233.79 234.926C 233.28 235.42 232.958 235.767 232.272 236.492C 230.69 234.385 228.461 232.053 227.218 230.777C 225.445 228.948 223.064 226.36 221.468 225.772L 221.421 225.723C 221.977 225.242 222.434 224.83 222.927 224.353C 223.421 223.874 223.933 223.315 224.513 222.721C 225.64 224.36 228.625 227.4 229.223 228.014C 230.211 229.033 233.022 231.961 235.228 233.621C 234.45 234.315 234.094 234.629 233.79 234.926z"/>
<path style="stroke:#ffffff; stroke-width:1.000188; fill:#d9d9d9" d="M 235.567 214.442C 236.302 215.696 237.464 217.596 238.466 219.268C 239.47 220.938 241.459 224.265 242.349 225.685C 241.779 226.317 241.228 227.062 240.761 227.815C 238.334 226.732 235.859 225.702 233.305 224.663C 231.317 223.864 229.43 223.087 228.096 222.597C 227.28 222.303 226.148 221.959 225.595 221.982L 225.527 221.923C 226.025 221.446 226.55 220.867 227.043 220.259C 227.565 219.648 228.059 219.043 228.487 218.473C 228.965 218.884 229.825 219.371 230.43 219.703C 231.424 220.244 233.196 221.016 235.118 221.822C 236.539 222.417 237.544 222.873 238.744 223.309L 238.806 223.238C 238.195 222.183 236.878 220.151 236.224 219.183C 234.596 216.821 233.329 215.078 232.045 214.321C 232.465 213.901 232.805 213.54 233.208 213.072C 233.592 212.624 233.901 212.264 234.266 211.735C 234.627 212.732 235.135 213.698 235.567 214.442z"/>
<path style="stroke:#ffffff; stroke-width:1.000188; fill:#d9d9d9" d="M 253.009 211.231C 251.657 213.06 250.878 214.248 250.026 215.501C 249.124 216.833 248.856 217.224 247.463 219.397C 245.69 217.795 243.876 216.532 241.433 214.874C 238.914 213.164 235.83 210.925 234.754 211.025L 234.699 210.987C 235.671 209.673 236.894 207.872 237.585 206.853C 238.144 206.031 239.097 204.587 240.324 202.704C 240.613 203.158 241.39 203.858 241.857 204.175L 241.804 204.253C 240.804 205.004 239.543 206.58 238.226 208.518C 239.345 209.479 241.423 210.834 242.412 211.504C 243.251 210.272 243.897 209.279 244.544 207.885C 244.981 208.325 245.598 208.86 246.163 209.273C 244.975 210.297 244.276 211.369 243.636 212.309L 245.858 213.815C 247.965 215.247 248.454 215.207 249.239 214.051C 250.237 212.582 251.062 210.968 251.242 209.659L 251.32 209.542C 251.894 210.302 252.414 210.742 253.009 211.231z"/>
<path style="stroke:#ffffff; stroke-width:1.000188; fill:#d9d9d9" d="M 245.122 196.828C 244.794 197.457 244.586 197.908 244.436 198.338C 245.333 198.911 246.514 199.526 246.854 199.702C 247.735 200.16 248.223 200.44 249.042 200.868C 249.327 200.374 249.499 200.09 249.684 199.733C 250.393 198.368 250.286 197.109 248.204 196.029C 246.446 195.113 245.571 195.967 245.122 196.828zM 259.614 198.866C 259.288 199.497 259.062 200.022 258.68 200.808C 257.502 200.436 256.218 200.169 254.768 199.923C 253.322 199.678 252.248 199.544 251.678 199.809C 251.106 200.073 250.812 200.693 250.383 201.564C 251.504 202.095 255.248 203.988 256.81 204.401C 256.464 204.969 256.107 205.608 255.777 206.239C 255.451 206.868 255.166 207.467 254.912 208.055C 253.123 206.752 249.391 204.839 248.211 204.225C 246.192 203.174 242.523 201.185 241.32 201.202L 241.261 201.17C 241.849 200.088 242.285 199.249 242.843 198.177C 243.488 196.937 243.95 196.003 244.639 194.682C 246.057 191.95 247.881 191.858 249.544 192.723C 251.263 193.617 252.228 195.427 251.416 197.672L 251.456 197.693C 252.076 196.6 252.921 196.293 253.935 196.394C 254.636 196.467 254.849 196.496 256.086 196.658C 257.677 196.872 259.614 197.158 260.569 196.883L 260.688 196.944C 260.202 197.785 259.876 198.362 259.614 198.866z"/>
<path style="stroke:#ffffff; stroke-width:1.000188; fill:#d9d9d9" d="M 262.975 191.269C 262.671 192.065 261.811 193.865 261.243 195.093C 260.536 194.67 259.673 194.21 258.773 193.789L 258.816 193.679C 260.042 193.059 261.141 191.959 261.702 190.501C 262.196 189.219 261.883 188.137 260.768 187.709C 259.971 187.402 259.358 187.547 258.509 188.059C 257.253 188.819 256.226 189.92 254.787 190.711C 253.17 191.587 252.006 191.47 250.723 190.977C 249.46 190.493 247.292 188.848 249.106 184.119C 249.446 183.235 250.022 181.859 250.598 180.736C 251.183 181.164 252.052 181.726 252.878 182.22L 252.837 182.33C 251.892 182.652 251.051 183.142 250.415 184.799C 249.813 186.369 250.377 187.473 251.303 187.829C 252.421 188.256 253.111 188.344 255.582 186.249C 258.664 183.63 259.753 183.945 261.077 184.454C 262.676 185.07 264.672 186.85 262.975 191.269z"/>
<path style="stroke:#ffffff; stroke-width:1.000188; fill:#d9d9d9" d="M 266.401 180.68C 266.202 181.363 266.092 181.824 265.858 182.79C 263.44 181.743 260.35 180.82 258.64 180.323C 256.193 179.611 252.841 178.538 251.166 178.815L 251.1 178.797C 251.348 178.104 251.543 177.519 251.733 176.861C 251.925 176.2 252.095 175.462 252.304 174.658C 254.093 175.526 258.193 176.692 259.015 176.931C 260.38 177.326 264.27 178.485 267.008 178.836C 266.674 179.824 266.518 180.271 266.401 180.68z"/>
<path style="stroke:#ffffff; stroke-width:1.000188; fill:#d9d9d9" d="M 257.095 162.264L 257.066 162.404C 256.722 162.866 256.097 164.382 255.714 166.31C 256.179 166.402 259.171 167.071 262.356 167.704C 265.495 168.331 268.761 168.667 269.293 168.654C 269.064 169.575 268.992 169.825 268.828 170.637C 268.689 171.334 268.589 171.844 268.484 172.716C 266.602 172.004 262.499 171.138 260.995 170.838C 259.402 170.521 256.521 169.994 255.035 169.723C 254.711 171.348 254.472 173.471 254.726 174.151L 254.7 174.289C 254.086 174.023 253.209 173.703 252.63 173.588C 253.193 171.456 253.568 169.696 253.961 167.722C 254.386 165.587 254.798 163.521 255.064 161.376C 255.531 161.686 256.367 161.997 257.095 162.264z"/>
<path style="stroke:#ffffff; stroke-width:1.000188; fill:#d9d9d9" d="M 257.914 150.078C 259.082 151.007 260.299 151.891 264.614 154.676C 266.096 154.798 266.906 154.866 267.99 154.887C 269.005 154.899 270.271 154.911 271.007 154.782C 270.869 155.626 270.822 156.19 270.769 156.829C 270.713 157.489 270.685 157.843 270.66 158.933C 270.004 158.688 268.531 158.422 267.768 158.357C 266.69 158.268 265.864 158.129 264.379 158.004C 260.751 159.482 257.636 161.028 256.857 161.415C 256.361 161.658 255.453 162.225 255.105 162.6L 255.015 162.592C 255.128 161.794 255.216 161.017 255.283 160.214C 255.349 159.413 255.396 158.585 255.427 157.685C 255.99 157.709 256.566 157.591 257.054 157.417C 258.265 156.996 259.938 156.494 262.59 155.338L 262.596 155.267C 261.178 154.364 259.097 153.288 257.877 152.71C 257.291 152.425 256.451 152.187 255.886 152.187C 255.978 151.602 256.035 151.203 256.103 150.377C 256.154 149.764 256.203 149.175 256.183 148.627C 256.767 149.223 257.576 149.835 257.914 150.078z"/>
<path style="stroke:#ffffff; stroke-width:1.000188; fill:#d9d9d9" d="M 256.914 86.7583C 256.785 88.9384 254.48 90.4066 252.658 91.4287C 250.876 92.4229 248.506 90.0775 248.108 88.5903C 247.911 87.8673 247.719 85.5971 248.364 85.0768C 249.108 84.4789 250.178 84.9479 250.933 84.3247C 251.001 84.2717 251.083 83.9377 251.071 83.8479C 250.812 81.6984 254.072 83.0507 255.777 84.3987C 256.293 84.805 256.934 86.3671 256.914 86.7583zM 261.321 100.78C 261.18 100.162 260.725 98.5116 260.671 97.4315L 260.669 97.4355C 260.612 94.6073 259.932 92.1448 259.55 89.3495C 259.387 88.1364 258.729 83.6267 260.837 83.6619C 260.965 83.6639 261.348 83.1967 261.36 83.0527C 261.549 80.8314 260.109 79.9563 258.128 80.7634C 257.029 81.2093 256.408 81.3585 255.359 80.6735C 255.138 80.5304 253.002 79.3141 251.041 78.01C 249.801 77.191 246.022 74.3075 246.022 74.3075C 244.299 73.2776 242.584 70.6682 241.562 73.6515C 242.883 76.302 245.856 77.2488 247.895 79.0973C 248.897 79.9744 249.583 81.8954 247.542 81.2156C 245.545 80.5014 243.262 78.039 242.037 77.337C 240.89 76.6728 238.242 76.4139 239.156 78.5212C 239.695 79.7612 240.691 80.8575 241.931 81.4336C 242.618 81.7525 245.024 82.5415 245.165 83.0816C 245.538 83.8507 245.374 85.774 244.827 86.447C 243.932 87.5473 241.535 85.795 240.382 84.8889C 240.316 84.835 239.818 84.5158 239.132 84.1087C 238.376 83.6537 236.72 82.8738 235.613 82.3706C 235.042 82.1146 233.866 81.6984 233.524 81.5975C 232.309 81.2354 228.454 80.2843 229.213 83.0127C 229.225 83.0546 229.323 83.1978 229.454 83.2868C 229.846 83.5638 230.778 84.1719 231.833 84.7508C 232.846 85.3071 237.478 86.737 239.177 87.6513C 240.777 88.5143 242.621 88.9534 243.985 90.2266C 244.558 90.7667 244.768 91.2336 244.883 91.7289C 245.001 92.2239 245.598 95.2023 245.598 96.2655C 245.598 98.9706 244.903 102.163 244.27 104.208C 243.617 106.323 241.744 109.814 245.165 109.941C 248.575 110.069 248.446 98.8598 248.641 96.3925C 248.7 95.6412 248.96 92.267 250.442 93.505C 252.912 95.5751 252.269 98.9366 252.568 101.7C 252.65 102.491 253.343 102.703 254.031 102.91C 254.259 102.98 255.146 102.94 255.25 102.777C 255.812 101.879 255.898 100.737 255.839 99.6986C 255.742 97.8964 254.884 95.3883 255.593 93.5901C 256.087 92.5598 256.865 92.2117 257.226 93.4699C 257.242 93.5249 257.257 93.564 257.275 93.6079C 257.378 93.9861 257.535 95.1652 257.529 95.4141C 257.484 97.4375 258.253 102.803 258.357 102.938C 259.154 103.994 260.618 104.573 261.643 103.175C 261.993 102.754 261.458 101.398 261.321 100.78z"/>
<path style="stroke:#ffffff; stroke-width:1.000188; fill:#d9d9d9" d="M 159.296 195.216C 159.296 195.574 158.974 195.866 158.579 195.866L 151.588 195.866C 151.188 195.866 150.864 195.574 150.864 195.216L 150.864 193.611C 150.864 193.257 151.188 192.965 151.588 192.965L 151.588 192.972L 158.579 192.972C 158.966 192.972 159.296 193.268 159.296 193.618L 159.296 195.216zM 161.191 190.986L 148.976 190.986C 148.121 190.986 147.428 191.738 147.428 192.667L 147.428 196.236C 147.428 197.157 148.121 197.908 148.976 197.908L 153.77 197.91L 158.579 197.914C 158.966 197.914 159.296 198.212 159.296 198.563L 159.296 199.678C 159.296 200.034 158.974 200.324 158.579 200.324L 151.581 200.324C 151.299 200.324 151.061 200.177 150.944 199.964L 147.428 199.964L 147.428 200.634C 147.428 201.556 148.121 202.309 148.976 202.309L 161.191 202.309C 162.042 202.309 162.737 201.556 162.737 200.63L 162.737 192.667C 162.737 191.738 162.042 190.986 161.191 190.986z"/>
<path style="stroke:#ffffff; stroke-width:1.000188; fill:#d9d9d9" d="M 170.497 198.076C 170.497 197.72 170.815 197.428 171.21 197.428L 178.201 197.428C 178.6 197.428 178.928 197.72 178.928 198.076L 178.928 199.68C 178.928 200.037 178.6 200.329 178.201 200.329L 178.201 200.321L 171.21 200.321C 170.821 200.321 170.497 200.024 170.497 199.673L 170.497 198.076zM 168.596 202.309L 180.815 202.309C 181.666 202.309 182.362 201.555 182.362 200.628L 182.362 197.059C 182.362 196.137 181.666 195.385 180.815 195.385L 176.019 195.383L 171.21 195.381C 170.821 195.381 170.497 195.082 170.497 194.73L 170.497 193.617C 170.497 193.26 170.815 192.968 171.21 192.968L 178.208 192.968C 178.49 192.968 178.73 193.116 178.845 193.332L 182.362 193.332L 182.362 192.658C 182.362 191.735 181.666 190.985 180.815 190.985L 168.596 190.985C 167.748 190.985 167.055 191.737 167.055 192.664L 167.055 200.628C 167.055 201.555 167.748 202.309 168.596 202.309z"/>
</g>
</g>
<g>
</g>
</g>
</svg>